<?xml version="1.0" encoding="UTF-8"?>
<svg xmlns="http://www.w3.org/2000/svg" version="1.1" viewBox="0 0 595.3 841.9">
  <!-- Generator: Adobe Illustrator 29.0.0, SVG Export Plug-In . SVG Version: 2.1.0 Build 186)  -->
  <defs>
    <style>
      .st0 {
        fill: #e83d4e;
      }

      .st0, .st1 {
        stroke: #fff;
        stroke-miterlimit: 10;
        stroke-width: 14px;
      }

      .st2 {
        fill: #fff;
      }

      .st1 {
        fill: #28242a;
      }

      .st3 {
        display: none;
      }
    </style>
  </defs>
  <g id="Layer_2" class="st3">
    <rect class="st2" x="245.1" y="126.4" width="114.9" height="156.7"/>
    <rect class="st2" x="177.3" y="258.3" width="235.6" height="111.6"/>
    <polyline class="st2" points="245.8 369.9 245.8 735.1 301 786.1 301 365.3 344.5 404.3 344.5 404.3 350.1 369.9 287.3 343.1 245.8 369.9"/>
    <polyline class="st2" points="350.1 369.9 350.1 404.3 344.5 404.3 301 365.3 350.1 369.9"/>
  </g>
  <g id="Layer_1">
    <g class="st3">
      <path class="st2" d="M570.4,224c-17.1-23.6-42.9-34.4-70.7-38.2-4.3-.6-8.6-.9-12.8-1.7-5.1-15.9-10.7-31.4-19.6-45.7-46-73.4-147.4-97.8-224.4-60.4-4.8,2.3-24.4,15.5-24.8,15.9-11.1,8.7-21.4,13.2-31.6,24.4-12.7,13.9-22.7,29.8-32.3,45.9-2.5.2-4-2.2-5.8-2.9-63.5-25-129.6,15.9-142.2,80.8-.8,4.1-1,7.2-1,7.2,0,1,0,2.4,0,5.1,0,2.3.1,4,.1,4.3,0,5-.7,10-.8,14.5-1.2,41.5,35.2,84.3,74.1,96.6,2.9.9,20,5.1,21.5,5.1h140.8l-.2-55.5c-1.7-.2-3.4-.8-5.1-.9-9.8-.9-21.8-1.8-31.2-5.1-2.3-.8-11.9-5.5-13.7-7-7.5-6.3,3.8-12,8.9-14.3,14.2-6.5,29.2-7.4,44.1-9.1,6.8-.8,13.6-1.9,20.4-2.6,4.3-9.9,10.2-19.3,18.3-26.4l.4-79.4c-.4-2-6.9-6.3-8.9-8.9-14.3-18.9,4.9-44.3,26.8-41.4,20.5,2.8,32.4,28.6,17.2,44.2-2.4,2.4-6.4,3.1-6.8,6.9-.1,21.8-.4,43.6.8,65.3.2,3.2-.7,10.4,0,12.8.2.6,7.8,8.4,9.1,10.3,2,2.8,8.8,17.2,10.6,17.5,1,.2,3-.8,4.7-.7,16.6,1.3,48,5.6,62.2,13.7,4.4,2.5,10.5,6.1,5.4,11.3-1.9,1.9-12.5,6.9-15.4,7.8-5.8,1.9-16.4,4.2-22.4,5-2.4.3-15.7-.6-15.7,2.9v53.6h149.6c2.2,0,16.6-4,19.9-5.1,60.9-20.4,89.2-91.8,50.3-145.7Z"/>
      <path class="st2" d="M342.8,399c-14-10.7-26-25-39.3-36.5-.7-.6-6-5-6.5-4.4v442.9c1.4.4,1.6-.6,2.4-1.2,8.2-6.3,17.1-17.9,24.6-25.4,40.3-40.9,82.6-80.9,122.2-122.2,4.8-5,9.1-10.8,14.5-15.4v-236.8l-4.4-.8h-113.6Z"/>
      <path class="st2" d="M246.9,399.1h-106.5c0,0-1.2,1.1-1.2,1.2v237.2c34.1,37.1,70.5,72,105.3,108.5.6.7,2.5,4.9,3.6,1.2v-346.9c0,0-1.1-1.2-1.2-1.2Z"/>
    </g>
    <g>
      <path class="st1" d="M22.1,259.6c0-.2,0-1.8-.1-4,0-2.6-.1-3.9,0-4.8,0,0,.2-3,.9-6.9,12-61.6,74.8-100.5,135.1-76.8,1.7.7,3.1,2.9,5.5,2.7,9.2-15.2,18.7-30.4,30.7-43.6,9.7-10.6,19.5-15,30-23.2,0,0,4.4-3.3,8-5.7s7.8-4.7,8.2-5.1c2.5-1.9,2.8-2.1,7.4-4.3,73.1-35.5,169.5-12.3,213.2,57.4,8.5,13.6,13.8,28.4,18.6,43.4,4,.8,8.1,1.1,12.1,1.7,26.4,3.6,50.9,13.8,67.2,36.3,37,51.2,10.1,119-47.7,138.4-3.1,1-16.8,4.9-18.9,4.9h-142.2v-51c0-3.3,12.6-2.4,14.9-2.7,5.7-.8,15.8-2.9,21.3-4.8,2.7-.9,12.8-5.6,14.6-7.4,4.8-4.9-1-8.4-5.1-10.8-13.5-7.7-43.3-11.9-59.1-13-1.7-.1-3.6.8-4.5.6-1.8-.3-8.2-13.9-10.1-16.6-1.2-1.7-8.4-9.1-8.6-9.8-.8-2.3,0-9.1,0-12.2-1.1-20.6-.9-41.3-.8-62,.4-3.6,4.2-4.2,6.5-6.5,14.5-14.8,3.2-39.4-16.3-42-20.9-2.8-39,21.3-25.5,39.3,1.8,2.4,8,6.6,8.4,8.4l-.4,75.5c-7.8,6.8-13.3,15.7-17.4,25.1-6.4.7-13,1.8-19.4,2.5-14.2,1.6-28.4,2.5-41.9,8.6-4.8,2.2-15.6,7.6-8.5,13.6,1.7,1.4,10.9,5.9,13,6.7,8.9,3.1,20.3,4,29.7,4.8,1.6.1,3.2.7,4.8.9v52.7c.1,0-133.6,0-133.6,0-1.5,0-17.7-4-20.5-4.8-36.9-11.6-71.5-52.3-70.4-91.7.1-4.3.8-9.1.8-13.8Z"/>
      <path class="st0" d="M301,365.3c.5-.6,5.5,3.6,6.1,4.2,12.6,11,24,24.6,37.3,34.7h107.9c0,.1,4.2.9,4.2.9v224.9c-5.1,4.4-9.2,9.8-13.8,14.6-37.7,39.2-77.8,77.3-116.1,116.1-7.1,7.2-15.6,18.2-23.4,24.1-.8.6-1,1.5-2.3,1.1v-420.7Z"/>
      <path class="st0" d="M245.1,735.1c-1,3.5-2.8-.5-3.4-1.2-33-34.6-67.7-67.8-100.1-103.1v-225.3c0,0,1.1-1.1,1.1-1.1h101.2c0,0,1.1,1.1,1.1,1.1v329.5Z"/>
    </g>
  </g>
</svg>